<svg xmlns="http://www.w3.org/2000/svg" version="1.1" xmlns:xlink="http://www.w3.org/1999/xlink" xmlns:svgjs="http://svgjs.dev/svgjs" width="1000" height="999" viewBox="0 0 1000 999"><g transform="matrix(1,0,0,1,-0.215743440233382,-0.21552769679306039)"><svg viewBox="0 0 343 343" data-background-color="#ffffff" preserveAspectRatio="xMidYMid meet" height="999" width="1000" xmlns="http://www.w3.org/2000/svg" xmlns:xlink="http://www.w3.org/1999/xlink"><g id="tight-bounds" transform="matrix(1,0,0,1,0.0740000000000407,0.07400000000001228)"><svg viewBox="0 0 342.85155851775386 342.85155851775386" height="342.85155851775386" width="342.85155851775386"><g><svg></svg></g><g><svg viewBox="0 0 342.85155851775386 342.85155851775386" height="342.85155851775386" width="342.85155851775386"><g><path d="M0 171.426c0-94.676 76.75-171.426 171.426-171.426 94.676 0 171.426 76.75 171.426 171.426 0 94.676-76.75 171.426-171.426 171.426-94.676 0-171.426-76.75-171.426-171.426zM171.426 341.463c93.909 0 170.038-76.128 170.037-170.037 0-93.909-76.128-170.038-170.037-170.038-93.909 0-170.038 76.128-170.038 170.038 0 93.909 76.128 170.038 170.038 170.037z" data-fill-palette-color="tertiary" fill="#000000" stroke="transparent"></path><ellipse rx="164.56874808852186" ry="164.56874808852186" cx="171.42577925887693" cy="171.42577925887693" fill="#000000" stroke="transparent" stroke-width="0" fill-opacity="1" data-fill-palette-color="tertiary"></ellipse></g><g transform="matrix(1,0,0,1,64.84655864529837,143.40315162928073)"><svg viewBox="0 0 213.1584412271571 56.04525525919238" height="56.04525525919238" width="213.1584412271571"><g><svg viewBox="0 0 213.1584412271571 56.04525525919238" height="56.04525525919238" width="213.1584412271571"><g><svg viewBox="0 0 213.1584412271571 56.04525525919238" height="56.04525525919238" width="213.1584412271571"><g id="textblocktransform"><svg viewBox="0 0 213.1584412271571 56.04525525919238" height="56.04525525919238" width="213.1584412271571" id="textblock"><g><svg viewBox="0 0 213.1584412271571 56.04525525919238" height="56.04525525919238" width="213.1584412271571"><path d="M212.659 12.021C211.657 6.203 208.801 4.586 208.801 4.586 200.033-1.406 189.09-0.115 179.259 0.746 161.903 0.781 144.617 2.061 127.3 2.748 90.954 2.852 54.297 1.13 18.131 5.377 14.734 6.68-3.524 5.633 0.604 12.765 1.687 15.732 5.635 19.025 5.515 21.747 6.056 22.224 6.807 21.131 7.128 21.817 8.25 23.667 10.084 22.795 11.587 23.888 9.493 26.809 10.996 29.24 12.429 31.788 9.904 32.452 6.667 32.137 5.214 34.336 5.064 35.93 4.252 35.628 3.36 35.558 2.709 35.512 1.396 35.686 1.616 36.186 2.368 37.897-0.859 38.886 1.165 40.561-0.227 42.376 2.127 43.947 1.807 45.913 1.767 46.309 1.987 46.646 2.338 46.739 3.891 47.24 1.626 48.217 1.867 49.276 17.8 56.513 35.087 51.51 51.411 54.837 55.65 52.51 52.463 55.663 54.157 55.175 55.479 54.605 56.441 56.966 57.935 55.628 58.165 55.244 57.814 54.337 58.636 54.511 59.067 54.605 59.448 54.581 59.508 54.046 59.598 53.243 58.806 53.744 58.596 53.325 60.871 51.207 60.31 56.245 62.444 56.036 62.344 55.419 61.723 54.535 62.995 54.651 64.258 53.767 64.298 53.034 65.42 55.023 65.46 55.454 65.661 55.756 65.981 55.966 69.489 53.802 72.976 56.734 76.654 55.756 78.909 54.686 81.073 56.338 83.358 55.931 84.16 55.605 84.971 55.023 85.743 56.001 95.193 56.21 105.264 55.338 114.223 56.036 138.163 54.733 163.747 56.571 188.99 54.849 194.942 54.186 201.125 53.243 206.927 52.487 206.927 52.487 211.627 50.416 211.627 41.108S212.629 32.964 212.78 25.552C212.93 18.141 213.631 17.838 212.629 12.021Z" opacity="1" fill="#000000" data-fill-palette-color="tertiary"></path><g transform="matrix(1,0,0,1,30.055340213029154,20.326479041326117)"><svg width="153.0477608010988" viewBox="2.0999999046325684 -39.95000076293945 402.16998291015625 40.45000076293945" height="15.392297176540147" data-palette-color="#ffffff"><path d="M22.95-37.55L22.95-8Q22.95-3.95 20.25-1.95L20.25-1.95Q18.95-1 17.57-0.48 16.2 0.05 14.9 0.05L14.9 0.05 10.1 0.05Q8.8 0.05 7.43-0.48 6.05-1 4.75-1.95L4.75-1.95Q2.1-3.9 2.1-8L2.1-8 2.1-11.3Q2.1-13.65 5-13.65L5-13.65Q8-13.65 8-11.3L8-11.3 8-8.4Q8-7.1 8.75-6.05 9.5-5 11.35-5L11.35-5 13.65-5Q15.5-5 16.25-6.05 17-7.1 17-8.4L17-8.4 17-37.55Q17-39.95 19.95-39.95L19.95-39.95Q22.95-39.95 22.95-37.55L22.95-37.55ZM39-39.7L49.9-39.7Q51.2-39.7 52.6-39.15 54-38.6 55.3-37.75L55.3-37.75 55.25-37.75Q56.55-36.8 57.25-35.27 57.95-33.75 57.95-31.75L57.95-31.75 57.95-8Q57.95-3.95 55.25-1.95L55.25-1.95Q53.95-1 52.57-0.48 51.2 0.05 49.9 0.05L49.9 0.05 39 0.05Q37.7 0.05 36.32-0.48 34.95-1 33.65-1.95L33.65-1.95Q32.35-2.95 31.65-4.42 30.95-5.9 30.95-8L30.95-8 30.95-31.75Q30.95-33.75 31.65-35.27 32.35-36.8 33.65-37.75L33.65-37.75 33.6-37.75Q34.9-38.6 36.3-39.15 37.7-39.7 39-39.7L39-39.7ZM40.25-5L48.65-5Q50.5-5 51.25-6.05 52-7.1 52-8.4L52-8.4 52-31.3Q52-32.55 51.25-33.6 50.5-34.65 48.65-34.65L48.65-34.65 40.25-34.65Q38.4-34.65 37.65-33.6 36.9-32.55 36.9-31.3L36.9-31.3 36.9-8.4Q36.9-7.1 37.65-6.05 38.4-5 40.25-5L40.25-5ZM76.34-5L83.15-5Q85-5 85.75-6.05 86.5-7.1 86.5-8.4L86.5-8.4 86.5-31.3Q86.5-32.55 85.75-33.6 85-34.65 83.15-34.65L83.15-34.65 71.45-34.65 71.4-2.05Q71.4-0.95 70.55-0.3 69.7 0.35 68.45 0.35L68.45 0.35Q65.5 0.35 65.5-2.05L65.5-2.05 65.5-36.7Q65.5-38.5 66.42-39.1 67.34-39.7 68.65-39.7L68.65-39.7 84.4-39.7Q85.7-39.7 87.09-39.15 88.5-38.6 89.8-37.75L89.8-37.75 89.75-37.75Q91.05-36.8 91.75-35.27 92.45-33.75 92.45-31.75L92.45-31.75 92.45-8Q92.45-3.95 89.75-1.95L89.75-1.95Q88.45-1 87.07-0.48 85.7 0.05 84.4 0.05L84.4 0.05 76 0.05Q75.15 0.05 74.67-0.65 74.2-1.35 74.2-2.5L74.2-2.5Q74.2-5 76.34-5L76.34-5ZM106.14-37.55L106.14-2.1Q106.14 0.3 103.14 0.3L103.14 0.3Q100.19 0.3 100.19-2.1L100.19-2.1 100.19-37.55Q100.19-39.95 103.14-39.95L103.14-39.95Q106.14-39.95 106.14-37.55L106.14-37.55ZM153.29-1.2L142.29-34.8 131.34-1.2 131.34-1.25Q131.04-0.5 130.51-0.03 129.99 0.45 129.24 0.45L129.24 0.45Q128.84 0.45 128.46 0.38 128.09 0.3 127.69 0.2L127.69 0.2 127.74 0.2Q124.89-0.7 125.64-3L125.64-3 137.04-37.65Q137.29-38.45 137.91-39 138.54-39.55 139.39-39.65L139.39-39.65Q140.24-39.8 141.04-39.88 141.84-39.95 142.29-39.95L142.29-39.95Q142.74-39.95 143.54-39.88 144.34-39.8 145.19-39.7L145.19-39.7Q145.89-39.6 146.56-38.95 147.24-38.3 147.59-37.65L147.59-37.65Q150.39-29.05 153.26-20.33 156.14-11.6 158.94-3L158.94-3Q159.64-0.7 156.84 0.2L156.84 0.2Q156.44 0.3 156.11 0.38 155.79 0.45 155.39 0.45L155.39 0.45Q154.69 0.45 154.11-0.03 153.54-0.5 153.29-1.25L153.29-1.25 153.29-1.2ZM146.04-12L146.04-12Q146.04-10.4 144.91-9.28 143.79-8.15 142.19-8.15L142.19-8.15Q140.59-8.15 139.49-9.28 138.39-10.4 138.39-12L138.39-12Q138.39-13.6 139.49-14.73 140.59-15.85 142.19-15.85L142.19-15.85Q143.79-15.85 144.91-14.73 146.04-13.6 146.04-12ZM184.19-8.4L184.19-14.75Q184.19-15.9 183.34-16.98 182.49-18.05 180.34-18.2L180.34-18.2Q178.94-16.5 176.94-16.5L176.94-16.5Q175.24-16.5 174.04-17.7 172.84-18.9 172.84-20.65L172.84-20.65Q172.84-22.4 174.04-23.6 175.24-24.8 176.94-24.8L176.94-24.8Q177.84-24.8 178.71-24.3 179.59-23.8 180.29-23.1L180.29-23.1Q181.39-23.15 181.99-23.45 182.59-23.75 182.86-24.18 183.14-24.6 183.19-25.15 183.24-25.7 183.24-26.25L183.24-26.25 183.24-31.3Q183.24-32.55 182.46-33.6 181.69-34.65 179.84-34.65L179.84-34.65 169.39-34.65 169.34-1.65Q169.34-0.65 168.41-0.13 167.49 0.4 166.39 0.4L166.39 0.4Q163.44 0.4 163.44-2L163.44-2 163.44-36.7Q163.44-38.5 164.36-39.1 165.29-39.7 166.59-39.7L166.59-39.7 181.09-39.7Q182.39-39.7 183.86-39.2 185.34-38.7 186.64-37.85L186.64-37.85 186.59-37.85Q187.89-36.9 188.51-35.35 189.14-33.8 189.14-31.75L189.14-31.75 189.14-26.1Q189.14-24.1 188.29-22.83 187.44-21.55 186.49-20.8L186.49-20.8Q187.14-20.4 187.74-19.98 188.34-19.55 188.74-19.05L188.74-19.05Q189.39-18.35 189.76-17.4 190.14-16.45 190.14-15.15L190.14-15.15 190.14-8Q190.14-3.9 186.94-1.95L186.94-1.95Q185.34-0.95 183.91-0.45 182.49 0.05 181.09 0.05L181.09 0.05 173.69 0.05Q172.84 0.05 172.36-0.65 171.89-1.35 171.89-2.5L171.89-2.5Q171.89-5 173.99-5L173.99-5 180.84-5Q182.69-5 183.44-6.05 184.19-7.1 184.19-8.4L184.19-8.4ZM221.23-0.6L211.78-16.45 207.93-16.45Q207.08-16.45 206.61-17.13 206.13-17.8 206.13-18.95L206.13-18.95Q206.13-21.5 208.23-21.5L208.23-21.5 214.08-21.5Q215.93-21.5 216.68-22.55 217.43-23.6 217.43-24.85L217.43-24.85 217.43-31.3Q217.43-32.55 216.68-33.6 215.93-34.65 214.08-34.65L214.08-34.65 203.53-34.65 203.53-2.05Q203.53 0.35 200.58 0.35L200.58 0.35Q197.63 0.35 197.63-2.05L197.63-2.05 197.63-36.7Q197.63-38.5 198.56-39.1 199.48-39.7 200.78-39.7L200.78-39.7 215.33-39.7Q216.63-39.7 218.03-39.15 219.43-38.6 220.73-37.75L220.73-37.75 220.68-37.75Q221.98-36.8 222.68-35.27 223.38-33.75 223.38-31.75L223.38-31.75 223.38-24.45Q223.38-20.4 220.68-18.4L220.68-18.4Q220.13-18 219.51-17.65 218.88-17.3 218.23-16.95L218.23-16.95 226.23-3.75Q226.38-3.5 226.53-3.1 226.68-2.7 226.68-2.45L226.68-2.45Q226.68-1.25 224.98-0.15L224.98-0.15 224.98-0.2Q223.83 0.5 223.03 0.5L223.03 0.5Q221.88 0.5 221.18-0.65L221.18-0.65 221.23-0.6ZM255.48-1.2L244.48-34.8 233.53-1.2 233.53-1.25Q233.23-0.5 232.71-0.03 232.18 0.45 231.43 0.45L231.43 0.45Q231.03 0.45 230.66 0.38 230.28 0.3 229.88 0.2L229.88 0.2 229.93 0.2Q227.08-0.7 227.83-3L227.83-3 239.23-37.65Q239.48-38.45 240.11-39 240.73-39.55 241.58-39.65L241.58-39.65Q242.43-39.8 243.23-39.88 244.03-39.95 244.48-39.95L244.48-39.95Q244.93-39.95 245.73-39.88 246.53-39.8 247.38-39.7L247.38-39.7Q248.08-39.6 248.76-38.95 249.43-38.3 249.78-37.65L249.78-37.65Q252.58-29.05 255.46-20.33 258.33-11.6 261.13-3L261.13-3Q261.83-0.7 259.03 0.2L259.03 0.2Q258.63 0.3 258.31 0.38 257.98 0.45 257.58 0.45L257.58 0.45Q256.88 0.45 256.31-0.03 255.73-0.5 255.48-1.25L255.48-1.25 255.48-1.2ZM248.23-12L248.23-12Q248.23-10.4 247.11-9.28 245.98-8.15 244.38-8.15L244.38-8.15Q242.78-8.15 241.68-9.28 240.58-10.4 240.58-12L240.58-12Q240.58-13.6 241.68-14.73 242.78-15.85 244.38-15.85L244.38-15.85Q245.98-15.85 247.11-14.73 248.23-13.6 248.23-12ZM286.78-2.1L286.78-37.55Q286.78-39.95 289.73-39.95L289.73-39.95Q292.73-39.95 292.73-37.55L292.73-37.55 292.73-2.1Q292.73 0.3 289.73 0.3L289.73 0.3Q286.78 0.3 286.78-2.1L286.78-2.1ZM271.58-37.55L271.58-2.1Q271.58 0.3 268.58 0.3L268.58 0.3Q265.63 0.3 265.63-2.1L265.63-2.1 265.63-37.55Q265.63-39.95 268.58-39.95L268.58-39.95Q271.58-39.95 271.58-37.55L271.58-37.55ZM283.28-20.65L283.28-20.65Q283.28-18.9 282.08-17.7 280.88-16.5 279.13-16.5L279.13-16.5Q277.43-16.5 276.23-17.7 275.03-18.9 275.03-20.65L275.03-20.65Q275.03-22.4 276.23-23.6 277.43-24.8 279.13-24.8L279.13-24.8Q280.88-24.8 282.08-23.6 283.28-22.4 283.28-20.65ZM324.18-1.2L313.18-34.8 302.23-1.2 302.23-1.25Q301.93-0.5 301.4-0.03 300.88 0.45 300.13 0.45L300.13 0.45Q299.73 0.45 299.35 0.38 298.98 0.3 298.58 0.2L298.58 0.2 298.63 0.2Q295.78-0.7 296.53-3L296.53-3 307.93-37.65Q308.18-38.45 308.8-39 309.43-39.55 310.28-39.65L310.28-39.65Q311.13-39.8 311.93-39.88 312.73-39.95 313.18-39.95L313.18-39.95Q313.63-39.95 314.43-39.88 315.23-39.8 316.08-39.7L316.08-39.7Q316.78-39.6 317.45-38.95 318.13-38.3 318.48-37.65L318.48-37.65Q321.28-29.05 324.15-20.33 327.03-11.6 329.83-3L329.83-3Q330.53-0.7 327.73 0.2L327.73 0.2Q327.33 0.3 327 0.38 326.68 0.45 326.28 0.45L326.28 0.45Q325.58 0.45 325-0.03 324.43-0.5 324.18-1.25L324.18-1.25 324.18-1.2ZM316.93-12L316.93-12Q316.93-10.4 315.8-9.28 314.68-8.15 313.08-8.15L313.08-8.15Q311.48-8.15 310.38-9.28 309.28-10.4 309.28-12L309.28-12Q309.28-13.6 310.38-14.73 311.48-15.85 313.08-15.85L313.08-15.85Q314.68-15.85 315.8-14.73 316.93-13.6 316.93-12ZM364.97-39.95L364.97-39.95Q366.57-39.95 368.47-39.2L368.47-39.2Q370.22-38.5 370.22-36.55L370.22-36.55 370.22-2.1Q370.22 0.3 367.27 0.3L367.27 0.3Q364.32 0.3 364.32-2.1L364.32-2.1 364.32-27.8 362.87-27.95 360.87-21.45 354.87-1.45Q354.32 0.3 352.17 0.25L352.17 0.25Q351.22 0.2 350.52-0.25 349.82-0.7 349.57-1.55L349.57-1.55 345.97-13.2Q344.87-16.65 343.77-20.23 342.67-23.8 341.37-28.15L341.37-28.15 339.92-27.95 339.92-2.1Q339.92 0.3 336.97 0.3L336.97 0.3Q334.02 0.3 334.02-2.1L334.02-2.1 334.02-36.55Q334.02-38.45 335.77-39.2L335.77-39.2Q337.62-39.95 339.32-39.9L339.32-39.9Q340.07-39.9 340.87-39.7 341.67-39.5 342.37-39.13 343.07-38.75 343.62-38.18 344.17-37.6 344.47-36.85L344.47-36.85 352.32-10.1Q353.17-13.05 354.12-16.5 355.07-19.95 356.07-23.5 357.07-27.05 358.05-30.53 359.02-34 359.87-37L359.87-37Q360.17-37.7 360.72-38.25 361.27-38.8 361.97-39.18 362.67-39.55 363.45-39.75 364.22-39.95 364.97-39.95ZM386.57-22.85L396.22-22.85Q397.52-22.85 398.92-22.3 400.32-21.75 401.62-20.85L401.62-20.85 401.57-20.85Q402.87-19.95 403.57-18.4 404.27-16.85 404.27-14.85L404.27-14.85 404.27-8Q404.27-3.95 401.57-1.95L401.57-1.95Q400.27-1 398.9-0.48 397.52 0.05 396.22 0.05L396.22 0.05 385.32 0.05Q384.02 0.05 382.65-0.48 381.27-1 379.97-1.95L379.97-1.95Q377.27-3.95 377.27-8L377.27-8 377.27-11.3Q377.27-13.65 380.22-13.65L380.22-13.65Q383.22-13.65 383.22-11.3L383.22-11.3 383.22-8.4Q383.22-7.1 383.97-6.05 384.72-5 386.57-5L386.57-5 394.97-5Q396.82-5 397.57-6.05 398.32-7.1 398.32-8.4L398.32-8.4 398.32-14.45Q398.32-15.7 397.57-16.78 396.82-17.85 394.97-17.85L394.97-17.85 385.32-17.85Q382.72-17.85 379.97-19.75L379.97-19.75Q377.27-21.85 377.27-25.8L377.27-25.8 377.27-31.75Q377.27-33.75 377.97-35.27 378.67-36.8 379.97-37.75L379.97-37.75 379.92-37.75Q381.22-38.6 382.62-39.15 384.02-39.7 385.32-39.7L385.32-39.7 396.22-39.7Q397.52-39.7 398.92-39.15 400.32-38.6 401.62-37.75L401.62-37.75 401.57-37.75Q402.87-36.8 403.57-35.27 404.27-33.75 404.27-31.75L404.27-31.75 404.27-28.8Q404.27-26.45 401.27-26.45L401.27-26.45Q398.32-26.45 398.32-28.8L398.32-28.8 398.32-31.3Q398.32-32.55 397.57-33.6 396.82-34.65 394.97-34.65L394.97-34.65 386.57-34.65Q384.72-34.65 383.97-33.6 383.22-32.55 383.22-31.3L383.22-31.3 383.22-26.2Q383.22-24.9 383.97-23.88 384.72-22.85 386.57-22.85L386.57-22.85Z" opacity="1" transform="matrix(1,0,0,1,0,0)" fill="#ffffff" class="wordmark-text-0" data-fill-palette-color="quaternary" id="text-0"></path></svg></g></svg></g></svg></g></svg></g><g></g></svg></g></svg></g></svg></g><defs></defs></svg><rect width="342.85155851775386" height="342.85155851775386" fill="none" stroke="none" visibility="hidden"></rect></g></svg></g></svg>